#!OML:ASF F:\VICON\USERDATA\INSTALL\rory3\rory3.ASF
:FULLY-SPECIFIED
:DEGREES
192
root 5.26062 17.8813 5.64031 -2.2876 -5.53206 -3.14723
lowerback 11.615 2.71989 3.36536
upperback -0.117886 4.13925 0.992102
thorax -6.4749 1.93262 -1.54497
lowerneck -17.5688 -3.64097 -1.64625
upperneck 18.4887 -4.98199 1.83786
head 8.76651 -2.25931 0.264878
rclavicle 1.16382e-014 8.94531e-016
rhumerus -28.5971 -16.0404 -79.1311
rradius 30.8048
rwrist 1.9291
rhand -15.9455 15.1432
rfingers 7.12502
rthumb 10.2528 -14.587
lclavicle 1.16382e-014 8.94531e-016
lhumerus -39.7236 15.2677 75.7257
lradius 23.0566
lwrist -0.675259
lhand -22.7445 20.345
lfingers 7.12502
lthumb 3.68985 50.2928
rfemur 3.23612 4.66606 25.5502
rtibia 53.5902
rfoot 12.3001 1.97334
rtoes 3.10724
lfemur -21.2674 -0.468326 -18.4274
ltibia 26.6805
lfoot -3.35742 -10.8465
ltoes 20.1238
193
root 5.27955 17.8905 5.83482 -2.31777 -5.73646 -2.87665
lowerback 11.7377 2.77228 3.18584
upperback -0.19259 4.18424 0.874137
thorax -6.62499 1.95418 -1.58575
lowerneck -17.2079 -3.63073 -1.63717
upperneck 17.9925 -4.98221 1.93566
head 8.53569 -2.25683 0.306904
rclavicle 2.36119e-014 2.98177e-016
rhumerus -29.0068 -16.3022 -79.0083
rradius 30.668
rwrist 2.40347
rhand -16.1962 19.7102
rfingers 7.12502
rthumb 10.0108 -10.0318
lclavicle 2.36119e-014 2.98177e-016
lhumerus -40.1389 15.2332 75.4522
lradius 23.5573
lwrist -0.0488379
lhand -24.0627 20.4386
lfingers 7.12502
lthumb 2.41676 50.4047
rfemur 1.80767 5.11405 25.1611
rtibia 55.99
rfoot 15.4275 1.71525
rtoes 8.15746
lfemur -20.3718 -0.19848 -19.023
ltibia 27.0821
lfoot -5.08902 -10.1765
ltoes 6.35878
194
root 5.30386 17.9089 6.043 -2.53123 -6.04 -2.42727
lowerback 12.1389 2.84436 2.91549
upperback -0.336791 4.24713 0.656457
thorax -7.00455 1.97956 -1.70343
lowerneck -17.0099 -3.59785 -1.64199
upperneck 17.8819 -4.96606 2.07874
head 8.46694 -2.23763 0.362018
rclavicle 5.69751e-014 -4.02539e-015
rhumerus -29.7207 -16.4845 -78.9386
rradius 30.5672
rwrist 2.65916
rhand -16.4274 22.6434
rfingers 7.12502
rthumb 9.78782 -7.10918
lclavicle 5.69751e-014 -4.02539e-015
lhumerus -40.4152 15.259 74.8736
lradius 23.4895
lwrist -0.120585
lhand -25.3409 20.1872
lfingers 7.12502
lthumb 1.18228 50.1637
rfemur 0.600071 5.58483 24.5396
rtibia 58.3159
rfoot 17.894 1.50532
rtoes 11.8034
lfemur -19.3689 -0.260603 -19.7008
ltibia 27.3036
lfoot -5.78196 -9.6631
ltoes -3.98749
195
root 5.33084 17.9261 6.24702 -2.65214 -5.92676 -1.5581
lowerback 12.1455 2.77996 2.21586
upperback -0.340212 4.04128 0.369976
thorax -7.04736 1.89817 -1.57933
lowerneck -17.4263 -3.49866 -1.62833
upperneck 18.2017 -4.86166 2.1898
head 8.65049 -2.16806 0.400652
rclavicle 2.84542e-014 -3.18055e-015
rhumerus -30.1495 -16.5788 -78.9549
rradius 30.4476
rwrist 2.8459
rhand -16.4969 22.8197
rfingers 7.12502
rthumb 9.7208 -6.93599
lclavicle 2.84542e-014 -3.18055e-015
lhumerus -40.1245 15.1316 74.738
lradius 23.1873
lwrist 0.621521
lhand -25.8375 19.1854
lfingers 7.12502
lthumb 0.702652 49.164
rfemur -0.783567 5.57946 23.3641
rtibia 60.6058
rfoot 19.5102 0.851633
rtoes 12.284
lfemur -18.6401 -0.398438 -20.9054
ltibia 27.4877
lfoot -6.14834 -9.67412
ltoes 2.56484
196
root 5.33328 17.9426 6.44038 -2.86458 -6.198 -1.45066
lowerback 12.1106 2.83568 1.9028
upperback -0.149262 4.06921 0.423603
thorax -6.84849 1.92884 -1.34422
lowerneck -17.6781 -3.48112 -1.60048
upperneck 18.1943 -4.83306 2.15113
head 8.69056 -2.15428 0.382599
rclavicle -4.43197e-014 1.21756e-014
rhumerus -30.0116 -16.7339 -78.9531
rradius 29.9105
rwrist 2.97798
rhand -16.4584 22.6858
rfingers 7.12502
rthumb 9.75788 -7.06815
lclavicle -4.43197e-014 1.21756e-014
lhumerus -39.6385 14.6829 75.0823
lradius 23.407
lwrist 1.55937
lhand -26.0531 21.049
lfingers 7.12502
lthumb 0.494464 51.0281
rfemur -2.09421 6.09191 23.406
rtibia 62.8127
rfoot 20.3232 -0.665845
rtoes 11.7493
lfemur -17.7438 -0.244844 -21.1032
ltibia 27.486
lfoot -6.21411 -9.48403
ltoes 4.67148
197
root 5.34402 17.9414 6.61947 -3.01944 -6.34603 -1.02845
lowerback 12.1404 2.83113 1.3992
upperback 0.0358047 3.98587 0.383633
thorax -6.7021 1.90763 -1.08583
lowerneck -17.6503 -3.4336 -1.54743
upperneck 17.6953 -4.72827 1.9729
head 8.50755 -2.12585 0.331494
rclavicle 1.33465e-014 2.23633e-015
rhumerus -29.5263 -17.0412 -78.9226
rradius 28.9517
rwrist 3.48733
rhand -16.5456 22.7324
rfingers 7.12502
rthumb 9.67383 -7.02544
lclavicle 1.33465e-014 2.23633e-015
lhumerus -39.2869 14.5292 75.3746
lradius 24.1058
lwrist 1.54063
lhand -26.7217 23.9929
lfingers 7.12502
lthumb -0.15132 53.9726
rfemur -3.42299 6.33761 22.9443
rtibia 64.9716
rfoot 18.3987 -1.77686
rtoes 8.0161
lfemur -17.0204 -0.223633 -21.7062
ltibia 27.4864
lfoot -6.22006 -8.93392
ltoes 4.71082
198
root 5.3561 17.9372 6.80382 -3.17907 -6.45575 -0.640804
lowerback 12.2516 2.81977 1.04218
upperback 0.112368 3.9131 0.276768
thorax -6.70112 1.88202 -0.989575
lowerneck -17.5402 -3.35678 -1.65351
upperneck 17.3509 -4.62379 2.15411
head 8.37707 -2.069 0.426819
rclavicle 2.7923e-014 -9.64106e-015
rhumerus -29.3929 -17.4074 -78.8581
rradius 28.113
rwrist 4.00612
rhand -16.7877 23.1221
rfingers 7.12502
rthumb 9.4402 -6.64646
lclavicle 2.7923e-014 -9.64106e-015
lhumerus -38.942 14.3224 75.4475
lradius 24.3694
lwrist 1.37733
lhand -27.3578 23.626
lfingers 7.12502
lthumb -0.765626 53.6044
rfemur -4.74447 6.50593 22.4979
rtibia 67.0102
rfoot 14.7852 -2.78759
rtoes 0.959696
lfemur -16.3399 -0.344039 -22.2881
ltibia 27.6162
lfoot -6.91514 -8.09799
ltoes 3.25382
199
root 5.3665 17.9369 6.99322 -3.24466 -6.27912 -0.473753
lowerback 12.2717 2.71709 0.874592
upperback 0.0355023 3.75084 0.226268
thorax -6.8046 1.80586 -0.924128
lowerneck -17.2581 -3.26458 -1.61464
upperneck 17.2599 -4.5316 2.26419
head 8.29673 -2.01516 0.473651
rclavicle 2.60315e-014 -4.82053e-015
rhumerus -29.6785 -17.9274 -78.6327
rradius 27.4864
rwrist 4.78166
rhand -16.7358 23.4806
rfingers 7.12502
rthumb 9.49025 -6.28567
lclavicle 2.60315e-014 -4.82053e-015
lhumerus -38.8522 13.7793 75.5369
lradius 24.4657
lwrist 1.73307
lhand -27.9116 22.4325
lfingers 7.12502
lthumb -1.30056 52.4083
rfemur -6.08028 6.33589 22.3159
rtibia 68.884
rfoot 13.7582 -3.52525
rtoes 2.6948
lfemur -15.6856 -0.701126 -22.6442
ltibia 27.7349
lfoot -7.70654 -7.73753
ltoes 2.92633
200
root 5.37434 17.9396 7.17253 -3.4229 -6.01466 -0.161267
lowerback 12.4594 2.59811 0.454854
upperback 0.0292602 3.53519 0.243235
thorax -6.94729 1.71305 -0.642912
lowerneck -17.191 -3.20186 -1.61011
upperneck 17.2719 -4.41795 2.12081
head 8.28277 -1.97673 0.439929
rclavicle 1.53344e-014 1.28216e-014
rhumerus -29.9874 -18.2605 -78.3714
rradius 27.2691
rwrist 5.35196
rhand -16.5189 23.1093
rfingers 7.12502
rthumb 9.69955 -6.64734
lclavicle 1.53344e-014 1.28216e-014
lhumerus -38.7067 13.2541 75.9268
lradius 24.8877
lwrist 2.17853
lhand -28.1283 25.0713
lfingers 7.12502
lthumb -1.50984 55.0457
rfemur -7.35573 6.09332 21.982
rtibia 70.5887
rfoot 11.6528 -4.45046
rtoes 0.41103
lfemur -15.0007 -1.08449 -23.1242
ltibia 27.8488
lfoot -7.70257 -7.88542
ltoes 7.43389
201
root 5.37778 17.948 7.34506 -3.55973 -5.94777 -0.0404494
lowerback 12.6799 2.54661 0.23306
upperback 0.0741141 3.43792 0.288244
thorax -7.04059 1.67269 -0.46311
lowerneck -17.1491 -3.1976 -1.70888
upperneck 17.1445 -4.3582 2.00078
head 8.23056 -1.96906 0.424705
rclavicle -2.93642e-014 6.06293e-015
rhumerus -30.2881 -18.5264 -78.1999
rradius 27.2136
rwrist 5.68714
rhand -16.4531 22.6956
rfingers 7.12502
rthumb 9.763 -7.05808
lclavicle -2.93642e-014 6.06293e-015
lhumerus -38.2548 12.838 76.2512
lradius 24.9037
lwrist 2.77911
lhand -28.6931 22.0147
lfingers 7.12502
lthumb -2.05534 51.9845
rfemur -8.79038 6.0095 21.9122
rtibia 72.0979
rfoot 9.83812 -5.3979
rtoes -0.886968
lfemur -14.34 -1.32402 -23.3414
ltibia 27.9276
lfoot -7.54303 -7.80583
ltoes 12.2657
